<mxfile host="app.diagrams.net" modified="2023-11-10T00:31:40.504Z" agent="Mozilla/5.0 (Windows NT 10.0; Win64; x64) AppleWebKit/537.36 (KHTML, like Gecko) Chrome/119.0.0.0 Safari/537.36" etag="Sf4Pjnr8xM0DVmYo4_Ba" version="22.1.0" type="github">
  <diagram name="Page-1" id="XabQeT_WdHtfALKEOWOk">
    <mxGraphModel dx="1562" dy="822" grid="1" gridSize="10" guides="1" tooltips="1" connect="1" arrows="1" fold="1" page="1" pageScale="1" pageWidth="850" pageHeight="1100" math="0" shadow="0">
      <root>
        <mxCell id="0" />
        <mxCell id="1" parent="0" />
        <mxCell id="3hqoeaB7MPoOicmav-re-3" value="SMO 40" style="whiteSpace=wrap;html=1;aspect=fixed;" vertex="1" parent="1">
          <mxGeometry x="40" y="160" width="70" height="70" as="geometry" />
        </mxCell>
        <mxCell id="3hqoeaB7MPoOicmav-re-1" value="AMS 10-8" style="shape=cube;whiteSpace=wrap;html=1;boundedLbl=1;backgroundOutline=1;darkOpacity=0.05;darkOpacity2=0.1;" vertex="1" parent="1">
          <mxGeometry x="540" y="90" width="180" height="160" as="geometry" />
        </mxCell>
        <mxCell id="3hqoeaB7MPoOicmav-re-9" value="HBS 05-12" style="shape=cube;whiteSpace=wrap;html=1;boundedLbl=1;backgroundOutline=1;darkOpacity=0.05;darkOpacity2=0.1;" vertex="1" parent="1">
          <mxGeometry x="245" y="140" width="105" height="100" as="geometry" />
        </mxCell>
      </root>
    </mxGraphModel>
  </diagram>
</mxfile>
